<svg viewBox="0 0 40 40" fill="none" xmlns="http://www.w3.org/2000/svg"><rect width="40" height="40" rx="6" fill="url(#paint0_linear_1_2532)"/><path d="M19.922 31.32c-1.813 0-3.584-.33-5.312-.992a14.732 14.732 0 01-4.608-2.88l2.656-3.328c1.302 1.152 2.55 1.984 3.744 2.496a9.796 9.796 0 003.84.768c.939 0 1.75-.107 2.432-.32.683-.235 1.206-.565 1.568-.992.384-.427.576-.928.576-1.504 0-.768-.277-1.355-.832-1.76-.554-.427-1.504-.757-2.848-.992l-4.448-.768c-1.898-.32-3.35-.992-4.352-2.016-.981-1.024-1.472-2.347-1.472-3.968 0-1.387.352-2.592 1.056-3.616.726-1.024 1.739-1.803 3.04-2.336 1.323-.555 2.89-.832 4.704-.832 1.643 0 3.275.277 4.896.832 1.643.555 3.094 1.323 4.352 2.304l-2.496 3.456c-2.346-1.792-4.704-2.688-7.072-2.688-.832 0-1.557.107-2.176.32-.618.213-1.098.512-1.44.896-.32.363-.48.8-.48 1.312 0 .683.246 1.216.736 1.6.49.363 1.312.64 2.464.832l4.224.704c2.24.363 3.915 1.077 5.024 2.144 1.11 1.045 1.664 2.432 1.664 4.16 0 1.45-.384 2.72-1.152 3.808-.768 1.067-1.866 1.899-3.296 2.496-1.408.576-3.072.864-4.992.864z" fill="#fff"/><defs><linearGradient id="paint0_linear_1_2532" x1="0" y1="20" x2="40" y2="20" gradientUnits="userSpaceOnUse"><stop stop-color="#2979FF"/><stop offset="1" stop-color="#4C589E"/></linearGradient></defs></svg>