<svg width="208" height="88" fill="none" xmlns="http://www.w3.org/2000/svg"><rect x="16" y="24" width="40" height="40" rx="6" fill="url(#paint0_linear_1_2531)"/><path d="M79.088 57.36c-2.016 0-3.96-.396-5.832-1.188a15.508 15.508 0 01-4.968-3.348l2.304-2.664c1.368 1.344 2.76 2.34 4.176 2.988 1.44.648 2.94.972 4.5.972 1.224 0 2.292-.168 3.204-.504.936-.36 1.656-.864 2.16-1.512.504-.648.756-1.38.756-2.196 0-1.128-.396-1.992-1.188-2.592-.792-.6-2.1-1.056-3.924-1.368l-4.212-.684c-2.304-.408-4.032-1.152-5.184-2.232-1.128-1.08-1.692-2.52-1.692-4.32 0-1.44.384-2.7 1.152-3.78.768-1.104 1.848-1.956 3.24-2.556 1.416-.6 3.048-.9 4.896-.9 1.824 0 3.612.3 5.364.9a15.487 15.487 0 014.788 2.52l-2.088 2.88c-2.712-2.064-5.46-3.096-8.244-3.096-1.104 0-2.064.156-2.88.468-.816.312-1.452.756-1.908 1.332-.456.552-.684 1.2-.684 1.944 0 1.032.348 1.824 1.044 2.376.696.528 1.848.912 3.456 1.152l4.068.684c2.664.432 4.62 1.212 5.868 2.34 1.248 1.128 1.872 2.676 1.872 4.644 0 1.536-.42 2.892-1.26 4.068-.84 1.152-2.016 2.052-3.528 2.7-1.512.648-3.264.972-5.256.972zM92.202 57V31.8l3.6-.792v9.54c1.416-1.488 3.252-2.232 5.508-2.232 1.416 0 2.652.3 3.708.9 1.08.6 1.92 1.44 2.52 2.52.624 1.08.936 2.328.936 3.744V57h-3.6V46.092c0-1.44-.408-2.568-1.224-3.384-.816-.84-1.932-1.26-3.348-1.26-.96 0-1.824.204-2.592.612a5.156 5.156 0 00-1.908 1.764V57h-3.6zm29.138.36c-1.776 0-3.396-.42-4.86-1.26a9.349 9.349 0 01-3.42-3.42c-.84-1.44-1.26-3.048-1.26-4.824 0-1.776.42-3.384 1.26-4.824a9.349 9.349 0 013.42-3.42c1.464-.864 3.084-1.296 4.86-1.296 1.8 0 3.42.432 4.86 1.296 1.44.84 2.58 1.98 3.42 3.42.84 1.44 1.26 3.048 1.26 4.824 0 1.776-.42 3.384-1.26 4.824a9.349 9.349 0 01-3.42 3.42c-1.44.84-3.06 1.26-4.86 1.26zm0-3.168c1.128 0 2.148-.276 3.06-.828a6.227 6.227 0 002.16-2.304c.528-.96.792-2.04.792-3.24 0-1.176-.276-2.232-.828-3.168a6.227 6.227 0 00-2.16-2.304c-.888-.576-1.896-.864-3.024-.864-1.128 0-2.148.288-3.06.864a6.642 6.642 0 00-2.16 2.304c-.528.936-.792 1.992-.792 3.168 0 1.2.264 2.28.792 3.24a6.227 6.227 0 002.16 2.304c.912.552 1.932.828 3.06.828zm12.944 10.152V38.676h3.564v1.764c1.536-1.368 3.408-2.052 5.616-2.052 1.728 0 3.288.42 4.68 1.26a9.239 9.239 0 013.348 3.384c.816 1.416 1.224 3.012 1.224 4.788 0 1.776-.42 3.384-1.26 4.824a9.239 9.239 0 01-3.348 3.384c-1.392.84-2.964 1.26-4.716 1.26a9.16 9.16 0 01-2.916-.468 9.689 9.689 0 01-2.592-1.404v8.928h-3.6zm8.712-10.188c1.176 0 2.22-.276 3.132-.828a6.218 6.218 0 002.232-2.232c.552-.96.828-2.04.828-3.24 0-1.2-.276-2.28-.828-3.24a6.133 6.133 0 00-2.232-2.268c-.912-.552-1.956-.828-3.132-.828a7.177 7.177 0 00-2.88.576 6.09 6.09 0 00-2.232 1.62v8.28c.6.672 1.344 1.2 2.232 1.584a7.347 7.347 0 002.88.576zm21.111 3.24c-3.36 0-6.276-1.14-8.748-3.42l2.124-2.376c1.08.984 2.148 1.704 3.204 2.16 1.08.432 2.256.648 3.528.648 1.152 0 2.148-.216 2.988-.648.84-.456 1.5-1.08 1.98-1.872.48-.816.72-1.74.72-2.772 0-1.512-.54-2.736-1.62-3.672-1.056-.936-2.436-1.404-4.14-1.404-.864 0-1.728.12-2.592.36-.84.216-1.716.552-2.628 1.008l-2.412-.72.576-12.888h14.976v2.988h-12.024l-.36 7.812c.912-.456 1.8-.78 2.664-.972a11.244 11.244 0 012.736-.324c1.68 0 3.132.324 4.356.972 1.248.624 2.22 1.512 2.916 2.664.696 1.152 1.044 2.484 1.044 3.996 0 1.68-.396 3.156-1.188 4.428-.768 1.248-1.848 2.232-3.24 2.952-1.392.72-3.012 1.08-4.86 1.08zM190.244 57v-6.408h-14.292v-2.844l13.86-15.948h3.996v15.768h3.06v3.024h-3.06V57h-3.564zM180.2 47.568h10.044V36.012L180.2 47.568z" fill="#0C2146"/><path d="M35.922 55.32c-1.813 0-3.584-.33-5.312-.992a14.732 14.732 0 01-4.608-2.88l2.656-3.328c1.302 1.152 2.55 1.984 3.744 2.496a9.796 9.796 0 003.84.768c.939 0 1.75-.107 2.432-.32.683-.235 1.206-.565 1.568-.992.384-.427.576-.928.576-1.504 0-.768-.277-1.355-.832-1.76-.554-.427-1.504-.757-2.848-.992l-4.448-.768c-1.898-.32-3.35-.992-4.352-2.016-.981-1.024-1.472-2.347-1.472-3.968 0-1.387.352-2.592 1.056-3.616.726-1.024 1.739-1.803 3.04-2.336 1.323-.555 2.89-.832 4.704-.832 1.643 0 3.275.277 4.896.832 1.643.555 3.094 1.323 4.352 2.304l-2.496 3.456c-2.346-1.792-4.704-2.688-7.072-2.688-.832 0-1.557.107-2.176.32-.618.213-1.098.512-1.44.896-.32.363-.48.8-.48 1.312 0 .683.246 1.216.736 1.6.49.363 1.312.64 2.464.832l4.224.704c2.24.363 3.915 1.077 5.024 2.144 1.11 1.045 1.664 2.432 1.664 4.16 0 1.45-.384 2.72-1.152 3.808-.768 1.067-1.866 1.899-3.296 2.496-1.408.576-3.072.864-4.992.864z" fill="#fff"/><defs><linearGradient id="paint0_linear_1_2531" x1="16" y1="44" x2="56" y2="44" gradientUnits="userSpaceOnUse"><stop stop-color="#2979FF"/><stop offset="1" stop-color="#4C589E"/></linearGradient></defs></svg>