<svg width="28" height="28" fill="none" xmlns="http://www.w3.org/2000/svg"><path d="M14.07 18.585l-.07.07-.077-.07C10.598 15.568 8.4 13.573 8.4 11.55c0-1.4 1.05-2.45 2.45-2.45 1.078 0 2.128.7 2.499 1.652h1.302C15.022 9.8 16.072 9.1 17.15 9.1c1.4 0 2.45 1.05 2.45 2.45 0 2.023-2.198 4.018-5.53 7.035zM17.15 7.7A4.21 4.21 0 0014 9.156 4.21 4.21 0 0010.85 7.7C8.694 7.7 7 9.387 7 11.55c0 2.639 2.38 4.802 5.985 8.071l1.015.924 1.015-.924C18.62 16.352 21 14.189 21 11.55c0-2.163-1.694-3.85-3.85-3.85z" fill="#2979FF"/></svg>