<svg width="80" height="80" fill="none" xmlns="http://www.w3.org/2000/svg"><path d="M56 38h6v4h-6v-4zm-38 0h6v4h-6v-4zm24-20v6h-4v-6h4zm-16.16 5l4.26 4.28-2.84 2.82L23 25.86 25.84 23zm24.06 4.26L54.14 23 57 25.86l-4.26 4.24-2.84-2.84zM40 28a12 12 0 0112 12c0 4.44-2.42 8.32-6 10.4V54a2 2 0 01-2 2h-8a2 2 0 01-2-2v-3.6c-3.58-2.08-6-5.96-6-10.4a12 12 0 0112-12zm4 30v2a2 2 0 01-2 2h-4a2 2 0 01-2-2v-2h8zm-6-6h4v-4.26c3.46-.88 6-4.02 6-7.74a8 8 0 00-16 0c0 3.72 2.54 6.86 6 7.74V52z" fill="#65B168"/></svg>