<svg width="20" height="22" fill="none" xmlns="http://www.w3.org/2000/svg"><path d="M4.83 17.12C4 15.96 4 14.62 4 13.29c1.67 1 3.33 2 4.17 3.17l.33.56v-2.28c-1.5-.9-2.92-1.82-3.67-2.87C4 10.71 4 9.37 4 8.04c1.67 1 3.33 2 4.17 3.17l.33.58v-2.3C7 8.59 5.58 7.67 4.83 6.62 4 5.46 4 4.12 4 2.79c1.67 1 3.33 2 4.17 3.17.1.14.19.29.27.45-.17-.62-.28-1.2-.29-1.8C8.14 3.1 8.8 1.55 9.46 0c.69 1.48 1.38 2.97 1.39 4.48.01.63-.1 1.27-.28 1.9.08-.14.16-.28.26-.42.84-1.17 2.5-2.17 4.17-3.17 0 1.33 0 2.67-.83 3.83-.75 1.05-2.17 1.97-3.67 2.87v2.3l.33-.58c.84-1.17 2.5-2.17 4.17-3.17 0 1.33 0 2.67-.83 3.83-.75 1.05-2.17 1.97-3.67 2.87v2.28l.33-.56c.84-1.17 2.5-2.17 4.17-3.17 0 1.33 0 2.67-.83 3.83-.75 1.05-2.17 1.97-3.67 2.87v1.8h-2v-1.8c-1.5-.9-2.92-1.82-3.67-2.87z" fill="#9696A0"/></svg>